<mxfile host="65bd71144e">
    <diagram id="INUjULSDidOaNcGfEalw" name="Page-1">
        <mxGraphModel dx="778" dy="639" grid="1" gridSize="10" guides="1" tooltips="1" connect="1" arrows="1" fold="1" page="1" pageScale="1" pageWidth="850" pageHeight="1100" background="#ffffff" math="0" shadow="0">
            <root>
                <mxCell id="0"/>
                <mxCell id="1" parent="0"/>
                <mxCell id="2" value="" style="shape=umlLifeline;participant=umlActor;perimeter=lifelinePerimeter;whiteSpace=wrap;html=1;container=1;collapsible=0;recursiveResize=0;verticalAlign=top;spacingTop=36;outlineConnect=0;" parent="1" vertex="1">
                    <mxGeometry x="70" y="40" width="20" height="540" as="geometry"/>
                </mxCell>
                <mxCell id="3" value="Blazor&lt;br&gt;WebAssembly&lt;br&gt;" style="shape=umlLifeline;perimeter=lifelinePerimeter;whiteSpace=wrap;html=1;container=1;collapsible=0;recursiveResize=0;outlineConnect=0;" parent="1" vertex="1">
                    <mxGeometry x="160" y="40" width="100" height="540" as="geometry"/>
                </mxCell>
                <mxCell id="11" value="" style="html=1;points=[];perimeter=orthogonalPerimeter;" parent="3" vertex="1">
                    <mxGeometry x="40" y="90" width="10" height="410" as="geometry"/>
                </mxCell>
                <mxCell id="4" value="REST API" style="shape=umlLifeline;perimeter=lifelinePerimeter;whiteSpace=wrap;html=1;container=1;collapsible=0;recursiveResize=0;outlineConnect=0;" parent="1" vertex="1">
                    <mxGeometry x="320" y="40" width="100" height="540" as="geometry"/>
                </mxCell>
                <mxCell id="8" value="" style="html=1;points=[];perimeter=orthogonalPerimeter;" parent="4" vertex="1">
                    <mxGeometry x="50" y="150" width="10" height="330" as="geometry"/>
                </mxCell>
                <mxCell id="5" value="Back-end" style="shape=umlLifeline;perimeter=lifelinePerimeter;whiteSpace=wrap;html=1;container=1;collapsible=0;recursiveResize=0;outlineConnect=0;" parent="1" vertex="1">
                    <mxGeometry x="480" y="40" width="100" height="540" as="geometry"/>
                </mxCell>
                <mxCell id="14" value="" style="html=1;points=[];perimeter=orthogonalPerimeter;" parent="5" vertex="1">
                    <mxGeometry x="40" y="180" width="10" height="240" as="geometry"/>
                </mxCell>
                <mxCell id="9" value="Request GET information" style="html=1;verticalAlign=bottom;endArrow=block;entryX=0;entryY=0;" parent="1" source="3" target="8" edge="1">
                    <mxGeometry relative="1" as="geometry">
                        <mxPoint x="300" y="190" as="sourcePoint"/>
                    </mxGeometry>
                </mxCell>
                <mxCell id="10" value="Return" style="html=1;verticalAlign=bottom;endArrow=open;dashed=1;endSize=8;exitX=0;exitY=0.95;" parent="1" source="8" target="3" edge="1">
                    <mxGeometry relative="1" as="geometry">
                        <mxPoint x="300" y="266" as="targetPoint"/>
                    </mxGeometry>
                </mxCell>
                <mxCell id="13" value="Display" style="html=1;verticalAlign=bottom;endArrow=open;dashed=1;endSize=8;exitX=0;exitY=0.95;" parent="1" source="11" target="2" edge="1">
                    <mxGeometry relative="1" as="geometry">
                        <mxPoint x="130" y="186" as="targetPoint"/>
                    </mxGeometry>
                </mxCell>
                <mxCell id="12" value="Enter Author and&lt;br&gt;Repository&lt;br&gt;information" style="html=1;verticalAlign=bottom;endArrow=block;entryX=-0.2;entryY=0.024;entryDx=0;entryDy=0;entryPerimeter=0;" parent="1" source="2" target="11" edge="1">
                    <mxGeometry x="0.0444" y="10" relative="1" as="geometry">
                        <mxPoint x="130" y="110" as="sourcePoint"/>
                        <Array as="points">
                            <mxPoint x="120" y="140"/>
                        </Array>
                        <mxPoint as="offset"/>
                    </mxGeometry>
                </mxCell>
                <mxCell id="15" value="Request Seralized object&lt;br&gt;from information given" style="html=1;verticalAlign=bottom;endArrow=block;entryX=0;entryY=0;" parent="1" target="14" edge="1">
                    <mxGeometry relative="1" as="geometry">
                        <mxPoint x="380" y="220" as="sourcePoint"/>
                    </mxGeometry>
                </mxCell>
                <mxCell id="16" value="Return Seralized Object" style="html=1;verticalAlign=bottom;endArrow=open;dashed=1;endSize=8;exitX=0;exitY=0.95;" parent="1" source="14" edge="1">
                    <mxGeometry relative="1" as="geometry">
                        <mxPoint x="380" y="448" as="targetPoint"/>
                    </mxGeometry>
                </mxCell>
                <mxCell id="17" value="GitRepoRepository" style="shape=umlLifeline;perimeter=lifelinePerimeter;whiteSpace=wrap;html=1;container=1;collapsible=0;recursiveResize=0;outlineConnect=0;" parent="1" vertex="1">
                    <mxGeometry x="640" y="120" width="100" height="440" as="geometry"/>
                </mxCell>
                <mxCell id="18" value="Database" style="shape=umlLifeline;perimeter=lifelinePerimeter;whiteSpace=wrap;html=1;container=1;collapsible=0;recursiveResize=0;outlineConnect=0;" parent="1" vertex="1">
                    <mxGeometry x="800" y="120" width="100" height="300" as="geometry"/>
                </mxCell>
                <mxCell id="20" value="alt" style="shape=umlFrame;whiteSpace=wrap;html=1;" parent="1" vertex="1">
                    <mxGeometry x="470" y="230" width="440" height="200" as="geometry"/>
                </mxCell>
                <mxCell id="21" value="" style="html=1;points=[];perimeter=orthogonalPerimeter;" parent="1" vertex="1">
                    <mxGeometry x="685" y="260" width="10" height="150" as="geometry"/>
                </mxCell>
                <mxCell id="22" value="Ask for Repository&lt;br&gt;information" style="html=1;verticalAlign=bottom;endArrow=block;entryX=0;entryY=0;" parent="1" source="5" target="21" edge="1">
                    <mxGeometry relative="1" as="geometry">
                        <mxPoint x="615" y="260" as="sourcePoint"/>
                    </mxGeometry>
                </mxCell>
                <mxCell id="23" value="Return Repository&amp;nbsp;&lt;br&gt;information" style="html=1;verticalAlign=bottom;endArrow=open;dashed=1;endSize=8;exitX=0;exitY=0.95;" parent="1" source="21" target="14" edge="1">
                    <mxGeometry relative="1" as="geometry">
                        <mxPoint x="615" y="336" as="targetPoint"/>
                    </mxGeometry>
                </mxCell>
                <mxCell id="24" value="" style="html=1;points=[];perimeter=orthogonalPerimeter;" parent="1" vertex="1">
                    <mxGeometry x="840" y="300" width="10" height="80" as="geometry"/>
                </mxCell>
                <mxCell id="25" value="If Repository information&lt;br&gt;is not in RepoRepository&lt;br&gt;or not updated:&lt;br&gt;Create/Update Repository" style="html=1;verticalAlign=bottom;endArrow=block;entryX=0;entryY=0;" parent="1" source="21" target="24" edge="1">
                    <mxGeometry relative="1" as="geometry">
                        <mxPoint x="770" y="300" as="sourcePoint"/>
                    </mxGeometry>
                </mxCell>
                <mxCell id="26" value="return" style="html=1;verticalAlign=bottom;endArrow=open;dashed=1;endSize=8;exitX=0;exitY=0.95;entryX=0.967;entryY=0.764;entryDx=0;entryDy=0;entryPerimeter=0;" parent="1" source="24" target="21" edge="1">
                    <mxGeometry relative="1" as="geometry">
                        <mxPoint x="770" y="376" as="targetPoint"/>
                    </mxGeometry>
                </mxCell>
            </root>
        </mxGraphModel>
    </diagram>
</mxfile>